<svg xmlns="http://www.w3.org/2000/svg" viewBox="0 0 100 100">
  <defs>
    <linearGradient id="grad" x1="0%" y1="0%" x2="100%" y2="100%">
      <stop offset="0%" style="stop-color:#8B5CF6;stop-opacity:1" />
      <stop offset="100%" style="stop-color:#EC4899;stop-opacity:1" />
    </linearGradient>
  </defs>
  
  <!-- Background circle -->
  <circle cx="50" cy="50" r="48" fill="url(#grad)"/>
  
  <!-- Quote marks -->
  <g fill="white" opacity="0.95">
    <!-- Left quote -->
    <path d="M 25 35 Q 20 35 20 40 L 20 50 Q 20 55 25 55 L 30 55 L 30 60 Q 30 65 25 65 L 20 65 Q 20 70 25 70 L 30 70 Q 40 70 40 60 L 40 45 Q 40 35 30 35 Z"/>
    
    <!-- Right quote -->
    <path d="M 60 35 Q 55 35 55 40 L 55 50 Q 55 55 60 55 L 65 55 L 65 60 Q 65 65 60 65 L 55 65 Q 55 70 60 70 L 65 70 Q 75 70 75 60 L 75 45 Q 75 35 65 35 Z"/>
  </g>
</svg>
